# xmcd
#
# Track frame offsets:
#	150
#	19360
#	40161
#	62460
#	81053
#	95230
#	116902
#	137954
#	169998
#	186739
#	203672
#	220253
#	237137
#	253091
#	276096
#	291136
#	308910
#	333890
#
# Disc length: 4773 seconds
#
# Revision: 0
# Processed by: cddbd v1.5.1PL0 Copyright (c) Steve Scherf et al.
# Submitted via: dBpowerAMP V4.0
#
DISCID=1712a312
DTITLE=R. Kelly - R in R&B
DYEAR=2003
DGENRE=R&B
TTITLE0=Bump N' Grind
TTITLE1=Your Body's Callin'
TTITLE2=Sex Me (Part 1)
TTITLE3=You Remind Me of Something
TTITLE4=Ignition (Remix)
TTITLE5=Down Low (Nobody Has to Know)
TTITLE6=When a Woman's Fed Up
TTITLE7=Step in the Name of Love (Remix)
TTITLE8=Thoia Thoing
TTITLE9=Touched a Dream
TTITLE10=Fiesta (Remix) - Jay-Z
TTITLE11=I Wish
TTITLE12=Ghetto Religion - Wyclef Jean
TTITLE13=Honey Love
TTITLE14=She's Got That Vibe
TTITLE15=World's Greatest
TTITLE16=I'm Your Angel - Celine Dion
TTITLE17=I Believe I Can Fly
EXTD=
EXTT0=
EXTT1=
EXTT2=
EXTT3=
EXTT4=
EXTT5=
EXTT6=
EXTT7=
EXTT8=
EXTT9=
EXTT10=
EXTT11=
EXTT12=
EXTT13=
EXTT14=
EXTT15=
EXTT16=
EXTT17=
PLAYORDER=
